<?xml version="1.0" encoding="utf-8"?>
<!-- Generator: Adobe Illustrator 25.4.1, SVG Export Plug-In . SVG Version: 6.00 Build 0)  -->
<svg version="1.1" id="Capa_1" xmlns="http://www.w3.org/2000/svg" xmlns:xlink="http://www.w3.org/1999/xlink" x="0px" y="0px"
	 viewBox="0 0 1000 1000" style="enable-background:new 0 0 1000 1000;" xml:space="preserve">
<style type="text/css">
	.st0{fill:#FFFFFF;}
</style>
<path class="st0" d="M355.8,936.7C370,930.6,380,916.5,380,900V792c0-3.9,0.3-8,0.8-12.2c-0.3,0.1-0.5,0.1-0.8,0.2c0,0-60,0-72,0
	c-30,0-56-12-68-36c-14-26-20-70-56-94c-6-4-2-10,10-10c12,2,38,18,54,40c18,22,36,40,68,40c49.7,0,76.4-2.5,92.4-11.1
	C427.1,681.1,453,660,480,660v-0.5c-113.4-3.6-185.8-41.3-219.5-99.5c-73.3,0.8-137.1,8.1-173.5,14.1c-1.2-6.5-2.2-13.1-3-19.7
	c35.9-5.9,96.9-12.9,166.9-14.3c-2.2-5.5-4.2-11.2-5.8-17c-70.2-3.6-130.8-0.8-163.7,1.9c-0.4-6.6-0.9-13.3-1-20
	c33-2.7,91.9-5.4,160.4-2.2c-1.6-10-2.6-20.2-2.6-30.9c0-34,12-70,34-100c-10-34-24-106,4-132c54,0,92,26,110,42c34-14,72-22,114-22
	s80,8,112,22c18-16,56-42,110-42c30,28,14,100,4,132c22,30,34,64,32,100c0,9.7-0.9,19-2.2,28.2c70-3.4,130.5-0.7,164.1,2
	c0,6.7-0.7,13.3-1,20c-33.4-2.8-95.5-5.6-167.2-1.8c-1.8,6.7-3.9,13.3-6.5,19.6c70.9,0.9,133.3,7.8,171,13.8
	c-0.9,6.6-1.9,13.2-3,19.7c-38.2-6.1-103.4-13.3-177.6-13.6C702.2,617.5,631.1,655,520,659.4v0.6c52,0,100,78,100,132v108
	c0,16.5,10,30.6,24.2,36.7C827.4,876.1,960,703.3,960,500c0-253.6-206.3-460-460-460S40,246.4,40,500
	C40,703.3,172.6,876.1,355.8,936.7z"/>
</svg>
