<svg xmlns="http://www.w3.org/2000/svg" viewBox="0 0 259.8 64.07"><defs><style>.cls-1{fill:#FFFFFF;}</style></defs><g id="Capa_2" data-name="Capa 2"><g id="Capa_1-2" data-name="Capa 1"><path class="cls-1" d="M81,16.41c6.84,0,11.15,4.27,11.15,11S87.87,38.5,81,38.5H75.71v8.28c0,.52-.26.78-.74.78H69.48c-.48,0-.74-.26-.74-.78V17.2c0-.53.26-.79.74-.79Zm-1,15.6C83.38,32,85,30.53,85,27.43s-1.61-4.57-4.92-4.57H75.71V32Z"/><path class="cls-1" d="M107,48.08c-7.67,0-12.12-4.35-12.12-12V17.2a.7.7,0,0,1,.79-.79h5.53a.72.72,0,0,1,.79.79V36.1c0,3.53,1.78,5.36,5,5.36s5.09-1.83,5.09-5.36V17.2c0-.53.26-.79.74-.79h5.58c.48,0,.74.26.74.79V36.1C119.19,43.73,114.7,48.08,107,48.08Z"/><path class="cls-1" d="M135.83,48.17c-7.66,0-12.72-4.05-12.72-11.63V27.43c0-7.58,5.1-11.58,12.59-11.58A16.52,16.52,0,0,1,145,18.63a.63.63,0,0,1,.21,1l-2.74,4.18a.72.72,0,0,1-1.09.22,10.44,10.44,0,0,0-5.58-1.57c-3.66,0-5.62,2.09-5.62,5.22v8.54c0,3.36,2.1,5.27,5.67,5.27a10.83,10.83,0,0,0,6.05-1.83c.44-.3.79-.26,1,.18L145.77,44c.26.39.26.74-.05,1A16.34,16.34,0,0,1,135.83,48.17Z"/><path class="cls-1" d="M155.66,41.24H168.6a.7.7,0,0,1,.78.74v4.8a.71.71,0,0,1-.78.78H149.43a.7.7,0,0,1-.79-.78V17.2a.7.7,0,0,1,.79-.79H167.9a.69.69,0,0,1,.78.79V22c0,.48-.26.74-.78.74H155.66v6h10.8c.52,0,.79.26.79.74v4.7c0,.48-.27.74-.79.74h-10.8Z"/><path class="cls-1" d="M29.59,6.58A25.34,25.34,0,0,0,17.77,10.8c-.46.31-.91.63-1.35,1l1.66,1.66c.45-.33.9-.65,1.37-.95a23.22,23.22,0,0,1,6.77-3V23.9l1.17,1.16V9.25a22,22,0,0,1,2.32-.35V27.39L32,29.71l2.32-2.32V8.9a22.16,22.16,0,0,1,2.33.35V25.06l1.16-1.16V9.51a23.22,23.22,0,0,1,6.77,3c.47.3.93.62,1.37.95l1.66-1.66c-.44-.34-.89-.66-1.35-1A25.34,25.34,0,0,0,34.49,6.58L32,0,29.59,6.58"/><path class="cls-1" d="M34.49,57.5A25.45,25.45,0,0,0,46.3,53.28c.46-.31.91-.64,1.35-1L46,50.64c-.44.34-.9.66-1.37,1a23.34,23.34,0,0,1-6.77,3V40.18L36.69,39V54.83c-.76.15-1.54.27-2.33.35V36.69L32,34.36l-2.33,2.33V55.18c-.79-.08-1.56-.2-2.32-.35V39l-1.17,1.17V54.56a23.46,23.46,0,0,1-6.77-3c-.47-.3-.92-.62-1.37-1L16.42,52.3c.44.34.89.67,1.35,1A25.45,25.45,0,0,0,29.59,57.5L32,64.07l2.45-6.57"/><path class="cls-1" d="M6.58,34.49A25.34,25.34,0,0,0,10.8,46.3c.31.46.63.91,1,1.35L13.43,46c-.33-.44-.65-.9-.95-1.37a23.1,23.1,0,0,1-3-6.77H23.9l1.17-1.16H9.25a22.16,22.16,0,0,1-.35-2.33H27.39L29.71,32l-2.32-2.33H8.9a22,22,0,0,1,.35-2.32H25.07L23.9,26.22H9.51a23.22,23.22,0,0,1,3-6.77c.3-.47.62-.92.95-1.37l-1.66-1.66c-.34.44-.66.89-1,1.35A25.34,25.34,0,0,0,6.58,29.59L0,32l6.58,2.45"/><path class="cls-1" d="M57.5,34.49A25.45,25.45,0,0,1,53.28,46.3c-.31.46-.64.91-1,1.35L50.64,46c.34-.44.66-.9,1-1.37a23.34,23.34,0,0,0,3-6.77H40.17L39,36.69H54.83c.15-.76.27-1.54.35-2.33H36.69L34.36,32l2.33-2.33H55.18c-.08-.79-.2-1.56-.35-2.32H39l1.16-1.17H54.56a23.46,23.46,0,0,0-3-6.77c-.3-.47-.62-.92-1-1.37l1.66-1.66c.34.44.67.89,1,1.35A25.45,25.45,0,0,1,57.5,29.59L64.07,32,57.5,34.49"/><path class="cls-1" d="M254.26,39a.61.61,0,0,0-.3-.08.6.6,0,0,0-.34.11,10.9,10.9,0,0,1-1.05.61l0,0a12.07,12.07,0,0,1-1.68.51l-.35.07a11.67,11.67,0,0,1-4.78-.09,12.32,12.32,0,0,1-1.42-.41l0,0a6.62,6.62,0,0,1-3.84-4.61s0,0,0-.07c0-.35-.07-.69-.1-1v-.15c0-.17,0-.33,0-.49,0-.46,0-.91,0-1.33s0-.88,0-1.33c0-.16,0-.33,0-.49V30c0-.35.06-.69.1-1,0,0,0-.05,0-.07a6.61,6.61,0,0,1,4.05-4.7c.38-.13.7-.22,1-.3a11.71,11.71,0,0,1,5.07-.13l.45.1a12.58,12.58,0,0,1,1.4.41l0,0h0a2,2,0,0,1,2.63.2l1.07-.65h0l2-1.22a11.37,11.37,0,0,0-2.1-2.23,11.09,11.09,0,0,0-7-2.47h-3a11.16,11.16,0,0,0-9.44,5.2.72.72,0,0,1-.62.34h-4.3a.73.73,0,0,1-.52-.21.84.84,0,0,1-.2-.4,11.62,11.62,0,0,0-2-2.22l-.08-.06-.21-.18A11.08,11.08,0,0,0,221.91,18h-3.33c-.31,0-.63,0-.94,0a9.46,9.46,0,0,0-1.91.35c-.34.1-.7.23-1.07.38a10.46,10.46,0,0,0-5,4.4l0,.05a1.28,1.28,0,0,1-.11.2,10.28,10.28,0,0,0-1.21,4.06c0,.13,0,.93,0,1.45,0,2.93,0,7.41,0,7.69a10.34,10.34,0,0,0,1.21,4c0,.08.1.16.14.24a10.48,10.48,0,0,0,5,4.41c.36.15.72.27,1.07.38a10.91,10.91,0,0,0,1.91.35,8.83,8.83,0,0,0,.89,0h.05a.74.74,0,0,1,.73.74.72.72,0,0,1-.73.73h-.06l-21.82,0a.74.74,0,0,1-.73-.74c0-.29,0-20.36,0-20.36a2,2,0,0,1,.73-3.89,2,2,0,0,1,1.87,1.28h5.08a.6.6,0,0,0,.59-.59V18.54a.59.59,0,0,0-.59-.59H183.12A2,2,0,0,1,182,19.08v4.07a.6.6,0,0,0,.59.59h7a.74.74,0,0,1,.74.73V43.62a2,2,0,0,1-.07,3.77h0l-.11,0h0a1.81,1.81,0,0,1-.52.07,2,2,0,0,1-.73-3.88V25.21h-7.24a1.06,1.06,0,0,1-1-1s0-.05,0-.07V19.08a2,2,0,1,1,2.61-2.6h21.59a1.06,1.06,0,0,1,1,1,.22.22,0,0,1,0,.08V24.1a1.08,1.08,0,0,1-1,1.11h-6.1a2,2,0,0,1-1.13,1.14V46l15.4,0a12.06,12.06,0,0,1-4.51-4.43l-.16-.29a11.86,11.86,0,0,1-1.39-4.62c0-.23,0-5.54,0-7.81,0-.24,0-1.33,0-1.56a11.91,11.91,0,0,1,1.39-4.64c0-.08.09-.15.13-.22l0-.06a12,12,0,0,1,5.74-5c.42-.17.83-.31,1.22-.43a11.57,11.57,0,0,1,2.19-.4,9.59,9.59,0,0,1,1.07-.06h3.36a12.48,12.48,0,0,1,7.71,2.79l.24.2.08.06a23.3,23.3,0,0,1,2,2.23.59.59,0,0,0,.49.26h3.12a12.64,12.64,0,0,1,10.46-5.55h3a12.55,12.55,0,0,1,7.89,2.8,12.8,12.8,0,0,1,2.58,2.82l.08.1a1.15,1.15,0,0,1,.15.56,1.1,1.1,0,0,1-.55.95L257,25.1l-.09,0-1.21.74v0a2,2,0,1,1-4,0,1.84,1.84,0,0,1,0-.33,8.57,8.57,0,0,0-1-.3l-.39-.08a10.38,10.38,0,0,0-4.44.12,7.71,7.71,0,0,0-.85.25,5.15,5.15,0,0,0-3.11,3.61c0,.31-.07.62-.1.94v.14l0,.45c0,.43,0,.86,0,1.26s0,.82,0,1.25q0,.24,0,.45l0,.15c0,.31.05.63.09.94a5.15,5.15,0,0,0,3,3.54,11,11,0,0,0,1.23.36,10.37,10.37,0,0,0,4.19.08l.3-.07a9.15,9.15,0,0,0,1.44-.43,5.16,5.16,0,0,0,1.19-.77h0l0,0a1.1,1.1,0,0,1,1.2-.11l.05,0,0,0,2.37,1.44.08.05,2.33,1.41,0,0a1.12,1.12,0,0,1,.48.92,1.07,1.07,0,0,1-.16.57s0,0,0,0A12.85,12.85,0,0,1,257,44.71a12.5,12.5,0,0,1-7.79,2.79h-3.12A12.68,12.68,0,0,1,233.83,38l0-.09a1.21,1.21,0,0,1-.05-.18v0a24.56,24.56,0,0,1-.68-5.74,25.67,25.67,0,0,1,.23-3.27,2,2,0,1,1,1.42.44,24.3,24.3,0,0,0-.18,2.83,23.05,23.05,0,0,0,.63,5.37v0s0,.1,0,.16l0,.1a10.83,10.83,0,0,0,.75,2A11.14,11.14,0,0,0,246.08,46h3a11,11,0,0,0,6.94-2.47,21.07,21.07,0,0,0,1.69-1.69.55.55,0,0,0,.14-.37.59.59,0,0,0-.28-.5Z"/><path class="cls-1" d="M230.86,42.1a.61.61,0,0,0,.12-.37.6.6,0,0,0-.29-.52l-3.36-2a.66.66,0,0,0-.32-.08.58.58,0,0,0-.34.11h0a6.2,6.2,0,0,1-1.06.61l0,0a11.8,11.8,0,0,1-1.7.51l-.31.07h0a11.63,11.63,0,0,1-4.44,0l-.38-.07-.7-.19c-.17,0-.34-.1-.5-.15a5,5,0,0,1-3.24-4.35v-.38a.76.76,0,0,1,.21-.54.75.75,0,0,1,.53-.22h5a.59.59,0,0,0,.6-.59V30.69a.59.59,0,0,0-.59-.6h-5a.74.74,0,0,1-.74-.74v-.1s0-.23,0-.4v-.22a5,5,0,0,1,3.21-4.34l.52-.17c.24-.07.47-.13.71-.18l.38-.08a11.89,11.89,0,0,1,4.45,0h0l.31.06a11.61,11.61,0,0,1,1.62.49A2,2,0,0,1,226.7,24a2,2,0,1,1-2,2,1.84,1.84,0,0,1,0-.33,9.78,9.78,0,0,0-1.14-.33l-.28-.06h0a10.71,10.71,0,0,0-3.87,0l-.35.07-.62.16-.43.14a3.52,3.52,0,0,0-2.22,2.93h5.32a1.05,1.05,0,0,1,1,1v5.29a1,1,0,0,1-1,1h-5.34A3.52,3.52,0,0,0,218,38.59l.41.13.61.16.34.07a10.39,10.39,0,0,0,3.89,0h0l.27-.06a9.72,9.72,0,0,0,1.46-.43,5.38,5.38,0,0,0,1.2-.78l0,0,0,0a1.14,1.14,0,0,1,1.22-.11l.06,0,0,0,4.82,2.91,0,0a1.1,1.1,0,0,1,.49.92,1.13,1.13,0,0,1-.17.6l0,0a12.47,12.47,0,0,1-2.31,2.61l0,0-.27.23a12.86,12.86,0,0,1-4.72,2.39A2,2,0,1,1,225,45.9a11.24,11.24,0,0,0,4.1-2.09l.25-.21,0,0a11,11,0,0,0,1.43-1.46Z"/></g></g></svg>